<svg xmlns="http://www.w3.org/2000/svg" xmlns:xlink="http://www.w3.org/1999/xlink"><defs><path d="M44.48 18.226a22.14 22.14 0 0 1-.335 10.482 22.093 22.093 0 0 1-3.65 7.372c-7.33 9.726-21.118 11.7-30.796 4.406a21.762 21.762 0 0 1-7.435-10.114 22.104 22.104 0 0 1-1.271-6.904 22.014 22.014 0 0 1 4.453-13.8c6.77-8.984 19.05-11.353 28.512-5.916.427.246.847.506 1.262.783l-2.505 3.747c-.328-.22-.662-.426-1.002-.622-7.574-4.352-17.322-2.372-22.667 4.72a17.506 17.506 0 0 0-3.548 10.984 17.598 17.598 0 0 0 1.012 5.497 17.253 17.253 0 0 0 5.901 8.026c7.687 5.792 18.65 4.223 24.485-3.52a17.585 17.585 0 0 0 2.908-5.87 17.632 17.632 0 0 0 .266-8.343l4.41-.928z" id="a"/><path d="M29.255 0s2.195 2.1 3.847 5.198L9.337 28.984 0 16.593l3.607-5.01 6.202 8.176L29.255 0z" id="b"/></defs><g fill="none" fill-rule="evenodd"><circle cx="27.5" cy="27.5" r="27.5"/><use fill="#fff" fill-rule="nonzero" xlink:href="#a" transform="translate(4 5)"/><g transform="translate(17.065 7.837)"><mask id="c" fill="#fff"><use xlink:href="#b"/></mask><use fill="#009BDE" xlink:href="#b"/><g mask="url(#c)"><g transform="translate(-14.919 -11.749)"><ellipse fill="#FFAD00" cx="42.693" cy="20.827" rx="16.904" ry="17.114"/><ellipse fill="#009B48" cx="56.109" cy="17.295" rx="16.904" ry="17.114"/><ellipse fill="#B731A9" cx="22.837" cy="45.548" rx="22.807" ry="23.091"/><ellipse fill="#009BDE" cx="15.593" cy="34.41" rx="12.879" ry="13.04"/></g></g></g></g></svg>