<svg width="414" height="200" xmlns="http://www.w3.org/2000/svg"><g fill="none" fill-rule="evenodd"><g transform="translate(-1 2)"><path fill="#D8FBDC" d="M131.544 44.236l62.696 98.916v31.455l23.673-14.592v-16.863l61.25-98.916z"/><path d="M128.636 42.636h153.399l-62.522 100.97v17.303l-26.873 16.564v-33.857l-64.004-100.98zm67.204 100.051v29.054l20.473-12.619v-16.426l59.977-96.86H134.453l61.387 96.851z" fill="#3E4952" fill-rule="nonzero"/><path fill="#E8F6FF" d="M121 25.4h167.2v19.552H121z"/><path d="M124.2 28.6v14.756H285V28.6H124.2zm-3.2-3.2h167.2v21.156H121V25.4z" fill="#3E4952" fill-rule="nonzero"/><g transform="translate(0 13)"><path fill="#FFF" d="M84.213 22.004l-.269 53.638H17.282V25.786"/><path d="M19.922 73.398h-2.64l2.64 2.64v-2.64zm0 0V26.182h-2.64v49.856h66.662l.27-53.638-2.642.15-.255 50.848H19.922zm61.395 0l-.013 2.627 2.64-2.627h-2.627zm0 0h2.627l-2.64 2.627.013-2.627zm0 0H19.922V26.182h-2.64v49.856h66.662l.27-53.638-2.642.15-.255 50.848zm-61.395 0h-2.64l2.64 2.64v-2.64z" fill="#3E4952" fill-rule="nonzero"/><path fill="#00A1E7" d="M84.22 8.404H8.482v18.465H84.22z"/><path d="M81.58 11.044v13.185H11.122V11.044H81.58zm2.64-2.64H8.482v18.465H84.22V8.404z" fill="#3E4952" fill-rule="nonzero"/><path fill="#FFF" d="M19.13 8.404H8.482V76.11H19.13z"/><path d="M17.29 73.47h-6.168V11.045h6.169V73.47zm2.64-65.066H8.483V76.11h11.449V8.404zM61.793 8.559l2.639.092a5.28 5.28 0 0 1 5.456-5.098 5.28 5.28 0 0 1 5.087 5.466 5.28 5.28 0 0 1-5.456 5.098l-.092 2.638c4.369.153 8.034-3.27 8.186-7.644.153-4.373-3.264-8.044-7.633-8.196-4.37-.153-8.034 3.27-8.187 7.644zM42.593 8.559l2.639.092a5.28 5.28 0 0 1 5.456-5.098 5.28 5.28 0 0 1 5.087 5.466 5.28 5.28 0 0 1-5.456 5.098l-.092 2.638c4.369.153 8.034-3.27 8.186-7.644.153-4.373-3.264-8.044-7.633-8.196-4.37-.153-8.034 3.27-8.187 7.644zM23.393 8.559l2.639.092a5.28 5.28 0 0 1 5.456-5.098 5.28 5.28 0 0 1 5.087 5.466 5.28 5.28 0 0 1-5.456 5.098l-.092 2.638c4.369.153 8.034-3.27 8.186-7.644.153-4.373-3.264-8.044-7.633-8.196-4.37-.153-8.034 3.27-8.187 7.644z" fill="#3E4952" fill-rule="nonzero"/><ellipse fill="#3E4952" transform="matrix(-1 0 0 1 121.61 0)" cx="60.805" cy="41.521" rx="3.523" ry="3.517"/><ellipse fill="#3E4952" transform="matrix(-1 0 0 1 84.81 0)" cx="42.405" cy="41.521" rx="3.523" ry="3.517"/><path fill="#3E4952" fill-rule="nonzero" d="M60.168 88.71l-1.014-14.294-2.634.187 1.015 14.294zM40.696 88.364l-.115 1.315-2.63-.23.115-1.315c.174-1.986.155-6.164-.063-12.478l-.045-1.32 2.638-.09.046 1.319c.22 6.422.24 10.67.054 12.8zM84.387 44.247l-1.666-2.494c8.58-5.732 13.159-14.13 13.781-25.336l2.996.166C98.824 28.71 93.77 37.98 84.387 44.247zM22.53 53.954l1.313.127.255-2.628-1.314-.127c-7.063-.684-12.233-1.518-15.478-2.488-2.684-.802-3.564-1.503-3.472-1.768.82-2.385 2.788-5.068 5.92-8.012l.962-.904-1.809-1.924-.961.904c-3.418 3.213-5.627 6.226-6.608 9.076-.81 2.352 1.205 3.96 5.211 5.157 3.445 1.03 8.762 1.888 15.98 2.587z"/></g><circle fill-opacity=".5" fill="#009B48" cx="207" cy="180" r="4"/><circle fill="#009B48" cx="207" cy="193" r="4"/><circle fill="#00A1E7" cx="154" cy="9" r="4"/><circle fill="#00A1E7" cx="217" cy="8" r="4"/><circle fill="#00A1E7" cx="193" cy="14" r="4"/><circle fill-opacity=".3" fill="#00A1E7" cx="106" cy="16" r="4"/><circle fill-opacity=".5" fill="#00A1E7" cx="116" cy="11" r="4"/><circle fill="#00A1E7" cx="128" cy="9" r="4"/><circle fill="#00A1E7" cx="239" cy="17" r="4"/><circle fill="#00A1E7" cx="171" cy="4" r="4"/><circle fill="#009B48" cx="223" cy="59" r="4"/><circle fill="#009B48" cx="213" cy="87" r="4"/><circle fill="#009B48" cx="188" cy="101" r="4"/><circle fill="#009B48" cx="205" cy="138" r="4"/><circle fill="#009B48" cx="205" cy="116" r="4"/><circle fill="#009B48" cx="196" cy="76" r="4"/><circle fill="#009B48" cx="185" cy="60" r="4"/><path d="M99.006 18.114l.993-.12c.14 1.16.577 2.089 1.313 2.806a5.915 5.915 0 0 0 2.763 1.521l-.24.97a6.914 6.914 0 0 1-3.222-1.775c-.904-.882-1.44-2.023-1.607-3.402zM97.17 21.48l.965-.26c.224.829.629 1.516 1.217 2.07.59.557 1.266.973 2.03 1.25l-.34.94a6.817 6.817 0 0 1-2.376-1.462c-.724-.683-1.224-1.532-1.497-2.537z" fill="#73CBF3" fill-rule="nonzero"/><path fill="#9B9B9B" fill-rule="nonzero" d="M80.5 101v2H2v-2z"/><path fill="#4A4A4A" fill-rule="nonzero" d="M255.7 129.5h-28.598v-3H252.7V116h22.5v3h-19.5z"/><circle fill="#4A4A4A" fill-rule="nonzero" cx="274" cy="118" r="4.5"/><path fill="#93E2B0" fill-rule="nonzero" d="M232.974 103.568l-2.542-1.594 16.807-26.8 2.542 1.594zM219.974 109.568l-2.542-1.594 14.838-23.66 2.541 1.594zM167.87 80.345l2.541-1.594-14.937-23.819-2.542 1.594zM177.328 82.482l2.542-1.594-7.348-11.718-2.542 1.594z"/><path fill="#9B9B9B" fill-rule="nonzero" d="M365.02 170v2H280v-2z"/><g><path fill="#FFF" fill-rule="nonzero" d="M299.01 93.39h71.434v56.11l-2.1 4.72-3.152 2.097H299.01z"/><path d="M292.846 147.148h63.473c-.401 5.662 2.415 9.048 5.706 9.048-42.082.316-54.051-.435-59.526-.435-5.474 0-9.917.694-9.653-8.613z" fill="#009B48"/><path d="M296.037 153.499c.949.653 2.13.793 5.398.766.515-.005.762-.006 1.064-.006 1.445 0 10.395.227 11.813.257 10.938.228 24.155.32 42.3.215-1.087-1.566-1.745-3.666-1.822-6.085h-60.445c.086 2.694.686 4.16 1.692 4.853zm-3.191-7.853h65.083l-.114 1.606c-.322 4.551 1.66 7.443 4.21 7.443l.011 3c-20.997.157-35.762.07-47.786-.18-1.462-.03-10.35-.256-11.75-.256-.292 0-.533.001-1.04.005-3.943.034-5.455-.146-7.123-1.293-2.183-1.502-3.12-4.316-2.99-8.867l.04-1.458h1.459zM345.973 92.584l2.729.097a5.469 5.469 0 0 1 5.655-5.264 5.447 5.447 0 0 1 5.265 5.634 5.469 5.469 0 0 1-5.656 5.263l-.094 2.729c4.522.155 8.317-3.38 8.478-7.895.16-4.517-3.377-8.304-7.9-8.46-4.52-.154-8.316 3.38-8.477 7.896zM326.014 92.584l2.728.097a5.469 5.469 0 0 1 5.656-5.264 5.447 5.447 0 0 1 5.264 5.634 5.469 5.469 0 0 1-5.656 5.263l-.093 2.729c4.521.155 8.317-3.38 8.477-7.895.161-4.517-3.376-8.304-7.899-8.46-4.521-.154-8.317 3.38-8.477 7.896zM306.054 92.584l2.728.097a5.469 5.469 0 0 1 5.656-5.264 5.447 5.447 0 0 1 5.265 5.634 5.469 5.469 0 0 1-5.656 5.263l-.094 2.729c4.521.155 8.317-3.38 8.478-7.895.16-4.517-3.377-8.304-7.9-8.46-4.52-.154-8.316 3.38-8.477 7.896zM298.576 131.69l1.5-.003-.006-3-1.5.004c-4.623.01-8.3-.891-11.055-2.668-2.934-1.893-5.578-4.005-7.935-6.337l-1.066-1.056-2.11 2.133 1.066 1.055c2.506 2.48 5.313 4.722 8.42 6.726 3.285 2.12 7.523 3.157 12.686 3.147zM370.758 122.745l-1.426-.465.93-2.852 1.426.465c4.48 1.46 7.78 3.243 9.901 5.398 1.858 1.887.66 4.264-2.537 7.05-2.689 2.345-7.14 5.301-13.38 8.9l-1.3.748-1.498-2.599 1.299-.749c6.086-3.509 10.397-6.372 12.908-8.56 1.166-1.017 1.905-1.858 2.21-2.462a1.46 1.46 0 0 0 .11-.273c-1.739-1.741-4.62-3.29-8.643-4.601z" fill="#3E4952" fill-rule="nonzero"/><path fill="#3E4952" fill-rule="nonzero" d="M321.756 170.212l.038-14.16 2.5.006-.038 14.16zM339.42 168.775l.111 1.245 2.49-.222-.11-1.245c-.18-2.012-.286-5.927-.315-11.715l-.007-1.25-2.5.013.007 1.25c.03 5.856.136 9.82.324 11.924z"/><g transform="matrix(-1 0 0 1 352.714 109.646)" fill="#3E4952"><path d="M7.879 21.216c-5.139 0-9.168-5.096-9.168-11.253S2.74-1.289 7.879-1.289c5.138 0 9.168 5.095 9.168 11.252 0 6.157-4.03 11.253-9.168 11.253zm0-2.578c3.564 0 6.59-3.826 6.59-8.675 0-4.848-3.026-8.674-6.59-8.674s-6.59 3.826-6.59 8.674c0 4.849 3.026 8.675 6.59 8.675z" fill-rule="nonzero"/><ellipse transform="matrix(-1 0 0 1 16.545 0)" cx="8.273" cy="11.537" rx="3.213" ry="3.146"/></g><g transform="matrix(-1 0 0 1 331.063 109.646)" fill="#3E4952"><path d="M8.22 21.245c-5.138 0-9.168-5.096-9.168-11.253S3.082-1.261 8.22-1.261c5.139 0 9.168 5.096 9.168 11.253s-4.03 11.253-9.168 11.253zm0-2.579c3.564 0 6.59-3.826 6.59-8.674 0-4.848-3.026-8.674-6.59-8.674S1.63 5.144 1.63 9.992c0 4.848 3.026 8.674 6.59 8.674z" fill-rule="nonzero"/><ellipse transform="matrix(-1 0 0 1 17.22 0)" cx="8.61" cy="11.552" rx="3.213" ry="3.146"/></g><path d="M368.158 94.555v-3 3zm0 0h-67.776v52.967h-3V91.555h73.776v58.173a7.9 7.9 0 0 1-7.9 7.9h-39.843v-3h39.843a4.9 4.9 0 0 0 4.9-4.9V94.555zm-67.776 0v-3 3zm0 0v-3l-3 3h3zm0 0v52.967h-3V91.555h73.776v58.173a7.9 7.9 0 0 1-7.9 7.9h-39.843v-3h39.843a4.9 4.9 0 0 0 4.9-4.9V94.555h-67.776zm67.776 0h3l-3-3v3z" fill="#3E4952" fill-rule="nonzero"/></g></g><path d="M269.444 113.674l-.84-.926c1.22-1.106 2.704-1.662 4.42-1.662 1.717 0 3.2.556 4.42 1.662l-.84.926c-.986-.894-2.17-1.338-3.58-1.338-1.41 0-2.593.444-3.58 1.338zM270.34 109.017l-.625-1.083c.979-.566 2.086-.848 3.31-.848 1.232 0 2.346.287 3.33.861l-.63 1.08c-.788-.46-1.684-.691-2.7-.691-1.01 0-1.9.227-2.685.68zM272.087 127.173l.047 1.249c-1.645.063-3.139-.465-4.454-1.568-1.314-1.103-2.093-2.483-2.317-4.114l1.238-.17c.181 1.32.803 2.42 1.883 3.326 1.08.907 2.272 1.327 3.603 1.277zM268.458 130.149l-.216 1.231c-1.114-.196-2.144-.69-3.08-1.477-.945-.793-1.614-1.728-2-2.801l1.177-.422c.309.859.847 1.612 1.626 2.265.772.649 1.601 1.047 2.493 1.204z" fill="#979797" fill-rule="nonzero"/></g></svg>