<?xml version="1.0" encoding="UTF-8"?>
<svg width="114px" height="22px" viewBox="0 0 114 22" version="1.1" xmlns="http://www.w3.org/2000/svg" xmlns:xlink="http://www.w3.org/1999/xlink">
    <!-- Generator: Sketch 50.2 (55047) - http://www.bohemiancoding.com/sketch -->
    <title>inviteonce-logo-navigation</title>
    <desc>Created with Sketch.</desc>
    <defs/>
    <g id="Navigation" stroke="none" stroke-width="1" fill="none" fill-rule="evenodd">
        <g id="Desktop_OnceHub-Products-navigation" transform="translate(-778.000000, -213.000000)">
            <g id="Group-3" transform="translate(737.000000, 87.000000)">
                <g id="ScheduleOnce-logo" transform="translate(41.000000, 38.000000)">
                    <g id="inviteonce-logo-navigation" transform="translate(0.000000, 88.000000)">
                        <path d="M76.2781552,7.3016656 C76.8762352,7.1521456 77.6708752,6.9935536 78.6617392,6.8248816 C79.6515952,6.6568816 80.7919792,6.5725456 82.0818832,6.5725456 C83.2407472,6.5725456 84.2030512,6.7365136 84.9691312,7.0634416 C85.7355472,7.3907056 86.3477392,7.8483376 86.8060432,8.4370096 C87.2636752,9.0256816 87.5858992,9.7316176 87.7733872,10.5541456 C87.9598672,11.3766736 88.0536112,12.2828656 88.0536112,13.2733936 L88.0536112,21.4600336 L85.4459152,21.4600336 L85.4459152,13.8338416 C85.4459152,12.9367216 85.3850992,12.1706416 85.2641392,11.5352656 C85.1421712,10.8998896 84.9412432,10.3854736 84.6610192,9.9930256 C84.3807952,9.6005776 84.0064912,9.3159856 83.5397872,9.1379056 C83.0724112,8.9604976 82.4924752,8.8717936 81.8009872,8.8717936 C81.5210992,8.8717936 81.2311312,8.8812016 80.9324272,8.8996816 C80.6330512,8.9184976 80.3474512,8.9416816 80.0776432,8.9699056 C79.8061552,8.9977936 79.5625552,9.0307216 79.3485232,9.0676816 C79.1331472,9.1056496 78.9785872,9.1335376 78.8858512,9.1520176 L78.8858512,21.4600336 L76.2781552,21.4600336 L76.2781552,7.3016656 Z" id="Fill-1" fill="#333E48"/>
                        <path d="M96.6041728,21.7964032 C95.4264928,21.7964032 94.3939648,21.6092512 93.5059168,21.2356192 C92.6182048,20.8616512 91.8699328,20.3384992 91.2631168,19.6654912 C90.6556288,18.9928192 90.2023648,18.1938112 89.9036608,17.2684672 C89.6042848,16.3434592 89.4551008,15.3200032 89.4551008,14.1984352 C89.4551008,13.0772032 89.6183968,12.0493792 89.9456608,11.1142912 C90.2722528,10.1802112 90.7349248,9.3717952 91.3330048,8.6893792 C91.9310848,8.0072992 92.6649088,7.4747392 93.5338048,7.0913632 C94.4033728,6.7086592 95.3707168,6.5164672 96.4358368,6.5164672 C97.0896928,6.5164672 97.7438848,6.5725792 98.3984128,6.6848032 C99.0522688,6.7970272 99.6782368,6.9747712 100.276989,7.2173632 L99.6879808,9.4322752 C99.2958688,9.2454592 98.8419328,9.0959392 98.3285248,8.9837152 C97.8144448,8.8718272 97.2671008,8.8153792 96.6881728,8.8153792 C95.2302688,8.8153792 94.1134048,9.2740192 93.3379168,10.1896192 C92.5620928,11.1052192 92.1743488,12.4418272 92.1743488,14.1984352 C92.1743488,14.9833312 92.2627168,15.7030432 92.4407968,16.3575712 C92.6182048,17.0117632 92.8984288,17.5725472 93.2814688,18.0392512 C93.6648448,18.5066272 94.1554048,18.8664832 94.7534848,19.1188192 C95.3515648,19.3711552 96.0803488,19.4974912 96.9405088,19.4974912 C97.6319968,19.4974912 98.2579648,19.4319712 98.8190848,19.3009312 C99.3795328,19.1705632 99.8186848,19.0304512 100.136541,18.8805952 L100.501437,21.0676192 C100.351245,21.1610272 100.136541,21.2497312 99.8563168,21.3337312 C99.5760928,21.4180672 99.2575648,21.4923232 98.9030848,21.5581792 C98.5475968,21.6230272 98.1695968,21.6794752 97.7677408,21.7261792 C97.3658848,21.7725472 96.9778048,21.7964032 96.6041728,21.7964032" id="Fill-3" fill="#333E48"/>
                        <path d="M111.09844,12.7688896 C111.11692,11.5912096 110.822584,10.6238656 110.215432,9.8668576 C109.607944,9.1098496 108.77164,8.7315136 107.70652,8.7315136 C107.107768,8.7315136 106.579912,8.8484416 106.121944,9.0819616 C105.663976,9.3158176 105.276232,9.6192256 104.958712,9.9931936 C104.64052,10.3671616 104.39356,10.7969056 104.21548,11.2827616 C104.038072,11.7689536 103.92148,12.2638816 103.865368,12.7688896 L111.09844,12.7688896 Z M101.090008,14.1985696 C101.090008,12.9090016 101.276152,11.7830656 101.650456,10.8204256 C102.024088,9.8577856 102.520024,9.0587776 103.136248,8.4230656 C103.75348,7.7876896 104.463448,7.3112416 105.267496,6.9933856 C106.070536,6.6755296 106.892728,6.5166016 107.734408,6.5166016 C109.696984,6.5166016 111.201592,7.1291296 112.248232,8.3531776 C113.294872,9.5772256 113.818024,11.4416896 113.818024,13.9462336 L113.818024,14.3810176 C113.818024,14.5584256 113.80828,14.7220576 113.790136,14.8715776 L103.809592,14.8715776 C103.92148,16.3855936 104.360296,17.5347136 105.127048,18.3199456 C105.893464,19.1048416 107.089288,19.4972896 108.715528,19.4972896 C109.631128,19.4972896 110.401912,19.4183296 111.028552,19.2590656 C111.65452,19.1004736 112.126264,18.9462496 112.444456,18.7963936 L112.80868,20.9830816 C112.49116,21.1514176 111.934744,21.3291616 111.140776,21.5159776 C110.346136,21.7027936 109.444648,21.7965376 108.435304,21.7965376 C107.16388,21.7965376 106.066168,21.6043456 105.140824,21.2216416 C104.21548,20.8386016 103.454104,20.3104096 102.856024,19.6374016 C102.257608,18.9647296 101.813752,18.1657216 101.524456,17.2407136 C101.234488,16.3153696 101.090008,15.3016576 101.090008,14.1985696 L101.090008,14.1985696 Z" id="Fill-5" fill="#333E48"/>
                        <path d="M65.2055776,3.8773552 C66.2481856,3.8773552 67.1822656,4.0628272 68.0081536,4.4344432 C68.3256736,4.5772432 68.6193376,4.7412112 68.9005696,4.9199632 L70.6299616,3.1905712 C70.0812736,2.8058512 69.4936096,2.4819472 68.8562176,2.2349872 C67.7454016,1.8059152 66.5643616,1.5912112 65.3134336,1.5912112 C64.0436896,1.5912112 62.8441696,1.8059152 61.7148736,2.2349872 C60.7750816,2.5924912 59.9384416,3.1035472 59.1925216,3.7510192 L60.6225376,5.5899472 C61.1295616,5.1024112 61.7152096,4.7334832 62.3882176,4.4344432 C63.2241856,4.0628272 64.1626336,3.8773552 65.2055776,3.8773552" id="Fill-28" fill="#333E48"/>
                        <path d="M71.7080176,9.444976 C71.8531696,10.158976 71.9317936,10.919008 71.9317936,11.734144 C71.9317936,12.934672 71.7738736,14.025664 71.4600496,15.006784 C71.1448816,15.98824 70.6973296,16.82152 70.1173936,17.507296 C69.5371216,18.193072 68.8342096,18.67792 68.0079856,19.0492 C67.1820976,19.420816 66.2480176,19.60696 65.2054096,19.60696 C64.1628016,19.60696 63.2240176,19.420816 62.3883856,19.0492 C62.3218576,19.019968 62.2620496,18.985024 62.1975376,18.954112 L61.4469136,21.104848 C61.5369616,21.14248 61.6226416,21.18784 61.7150416,21.222784 C62.8440016,21.652192 64.0435216,21.866896 65.3136016,21.866896 C66.5641936,21.866896 67.7452336,21.652192 68.8563856,21.222784 C69.9665296,20.793376 70.9429456,20.154304 71.7829456,19.30456 C72.6232816,18.455152 73.2902416,17.395744 73.7851696,16.126 C74.2794256,14.856592 74.5273936,13.39096 74.5273936,11.728768 C74.5273936,10.078672 74.2817776,8.622784 73.7939056,7.359088 L71.7080176,9.444976 Z" id="Fill-30" fill="#333E48"/>
                        <path d="M71.7648016,4.1477344 C71.7648016,4.1477344 72.5436496,4.8852544 73.1296336,5.9728864 L64.6990576,14.3248384 L61.3867696,9.9739744 L62.6662576,8.2146784 L64.8663856,11.0857984 L71.7648016,4.1477344 Z" id="Fill-32" fill="#009B48"/>
                        <polygon id="I" fill="#009B49" points="0.428382275 1.74461735 3.16737159 1.74461735 3.16737159 21.3128606 0.428382275 21.3128606"/>
                        <path d="M5.65222787,7.05317395 C6.25462028,6.90257585 7.0546607,6.74256776 8.05237314,6.5731449 C9.05008557,6.40372203 10.1983789,6.31901187 11.4972875,6.31901187 C12.6644228,6.31901187 13.6338836,6.48372607 14.4056989,6.81315943 C15.1775141,7.14259278 15.7940159,7.60379255 16.2552226,8.19677258 C16.7164293,8.78975261 17.0411515,9.50037676 17.2293992,10.3286663 C17.4176468,11.1569559 17.5117692,12.0699432 17.5117692,13.0676556 L17.5117692,21.3128606 L14.8857279,21.3128606 L14.8857279,13.6323957 C14.8857279,12.7288071 14.8245484,11.9570034 14.7021874,11.3169614 C14.5798264,10.6769195 14.3774633,10.1592463 14.0950918,9.76392626 C13.8127204,9.36860624 13.4362308,9.08153291 12.9656117,8.90269766 C12.4949926,8.72386241 11.9114337,8.63444613 11.2149175,8.63444613 C10.9325461,8.63444613 10.6407666,8.64385837 10.3395704,8.66268314 C10.0383742,8.6815079 9.75130086,8.7050385 9.4783418,8.73327564 C9.20538274,8.76151279 8.96066449,8.79445563 8.74417972,8.83210515 C8.52769494,8.86975468 8.37239298,8.8979914 8.27826916,8.91681616 L8.27826916,21.3128606 L5.65222787,21.3128606 L5.65222787,7.05317395 Z" id="n" fill="#009B49"/>
                        <path d="M31.4890858,6.6296189 C30.75492,9.37803429 29.8937001,12.0134616 28.9054,14.5359798 C27.9170999,17.058498 26.9617576,19.3174357 26.0393442,21.3128606 L23.6674359,21.3128606 C22.7450225,19.3174357 21.7896801,17.058498 20.8013801,14.5359798 C19.81308,12.0134616 18.95186,9.37803429 18.2176943,6.6296189 L21.0413946,6.6296189 C21.2672918,7.55203229 21.5355406,8.5356114 21.8461492,9.58038574 C22.1567578,10.6251601 22.4861862,11.6605065 22.8344443,12.6864561 C23.1827024,13.7124057 23.5356614,14.705397 23.8933319,15.6654599 C24.2510024,16.6255228 24.5898431,17.4820367 24.909864,18.2350272 C25.229885,17.4820367 25.5687257,16.6255228 25.9263962,15.6654599 C26.2840667,14.705397 26.6370257,13.7124057 26.9852838,12.6864561 C27.3335419,11.6605065 27.6629703,10.6251601 27.9735789,9.58038574 C28.2841875,8.5356114 28.5524363,7.55203229 28.7783335,6.6296189 L31.4890858,6.6296189 Z" id="v" fill="#009B49"/>
                        <path d="M35.6399253,21.3128606 L33.013884,21.3128606 L33.013884,6.6296189 L35.6399253,6.6296189 L35.6399253,21.3128606 Z M34.3127861,3.9753406 C33.842167,3.9753406 33.4421468,3.82003864 33.1127135,3.50943005 C32.7832801,3.19882146 32.6185659,2.77997677 32.6185659,2.25288341 C32.6185659,1.72579005 32.7832801,1.30694535 33.1127135,0.996336766 C33.4421468,0.685728178 33.842167,0.530426213 34.3127861,0.530426213 C34.7834052,0.530426213 35.1834254,0.685728178 35.5128588,0.996336766 C35.8422921,1.30694535 36.0070063,1.72579005 36.0070063,2.25288341 C36.0070063,2.77997677 35.8422921,3.19882146 35.5128588,3.50943005 C35.1834254,3.82003864 34.7834052,3.9753406 34.3127861,3.9753406 Z" id="i" fill="#009B49"/>
                        <path d="M40.8920079,6.6296189 L46.4546975,6.6296189 L46.4546975,8.83210515 L40.8920079,8.83210515 L40.8920079,15.6089859 C40.8920079,16.3431517 40.9484813,16.9502412 41.0614299,17.4302726 C41.1743785,17.9103041 41.3437988,18.2867937 41.5696959,18.5597528 C41.7955931,18.8327118 42.0779603,19.0256627 42.416806,19.1386113 C42.7556518,19.2515599 43.1509659,19.3080333 43.6027602,19.3080333 C44.3934002,19.3080333 45.0287264,19.2186171 45.5087579,19.0397818 C45.9887893,18.8609466 46.3229239,18.7338813 46.5111715,18.6585823 L47.0194376,20.8328315 C46.7558909,20.9646049 46.2946911,21.1293191 45.6358244,21.3269791 C44.9769577,21.5246391 44.2239785,21.6234676 43.3768641,21.6234676 C42.3791517,21.6234676 41.5555807,21.4964024 40.9061264,21.2422681 C40.256672,20.9881338 39.7342927,20.606938 39.3389727,20.0986694 C38.9436527,19.5904008 38.6659916,18.9644869 38.5059811,18.2209087 C38.3459706,17.4773306 38.2659666,16.6161106 38.2659666,15.6372229 L38.2659666,2.53525344 L40.8920079,2.08346139 L40.8920079,6.6296189 Z" id="t" fill="#009B49"/>
                        <path d="M47.2453336,13.9994767 C47.2453336,12.7005681 47.4335784,11.5663931 47.8100736,10.5969179 C48.1865689,9.62744256 48.6854176,8.82269602 49.3066348,8.18265408 C49.927852,7.54261214 50.6431823,7.06258789 51.4526471,6.74256692 C52.2621119,6.42254595 53.090389,6.26253786 53.9375033,6.26253786 C55.9141034,6.26253786 57.4294741,6.8790396 58.4836609,8.11206157 C59.5378476,9.34508354 60.064933,11.2228255 60.064933,13.7453437 L60.064933,14.1830173 C60.064933,14.3618525 60.0555208,14.5265667 60.036696,14.6771648 L49.9843229,14.6771648 C50.0972715,16.2019706 50.5396468,17.3596762 51.311462,18.1503162 C52.0832773,18.9409563 53.2880441,19.3362703 54.9257985,19.3362703 C55.8482118,19.3362703 56.6247217,19.2562663 57.2553512,19.0962558 C57.8859808,18.9362453 58.3612989,18.7809434 58.6813199,18.6303453 L59.0484009,20.8328315 C58.7283799,21.0022544 58.1683517,21.1810869 57.3682992,21.3693346 C56.5682468,21.5575822 55.6599656,21.6517046 54.6434284,21.6517046 C53.3633445,21.6517046 52.2574063,21.4587537 51.3255805,21.072846 C50.3937548,20.6869384 49.6266572,20.1551468 49.0242648,19.4774554 C48.4218724,18.7997639 47.974791,17.9950174 47.6830071,17.0631916 C47.3912233,16.1313658 47.2453336,15.1101378 47.2453336,13.9994767 Z M57.3259437,12.5593896 C57.3447685,11.3734295 57.0482829,10.3992626 56.4364781,9.63685975 C55.8246733,8.87445685 54.9822778,8.49326112 53.9092663,8.49326112 C53.3068739,8.49326112 52.7750823,8.61091412 52.3138757,8.84622366 C51.852669,9.08153319 51.462061,9.387431 51.14204,9.76392626 C50.8220191,10.1404215 50.5725947,10.5733846 50.3937594,11.0628284 C50.2149242,11.5522722 50.0972712,12.051121 50.0407969,12.5593896 L57.3259437,12.5593896 Z" id="e" fill="#009B49"/>
                    </g>
                </g>
            </g>
        </g>
    </g>
</svg>